# WaveFront *.obj file (generated by CINEMA 4D)

mtllib ./Obelisque2.mtl

v -73.51985168457031 190.92913818359375 350.47796630859375
v -73.52107238769531 190.93560791015625 355.63504028320312
v -71.60736846923828 190.89254760742188 357.10317993164062
v -71.60736846923828 190.89254760742188 384.84939575195312
v -73.52107238769531 190.93560791015625 386.31753540039062
v -73.51985168457031 190.92913818359375 391.474609375
v -68.36277770996094 190.81619262695312 391.52902221679688
v -66.89463806152344 190.78070068359375 389.5621337890625
v -39.1484260559082 190.78070068359375 389.5621337890625
v -37.6802864074707 190.82647705078125 391.52902221679688
v -32.52320861816406 190.83888244628906 391.474609375
v -32.52877807617188 190.82872009277344 386.31753540039062
v -34.43568801879883 190.83067321777344 384.84939575195312
v -34.43568801879883 190.83067321777344 357.10317993164062
v -32.52877807617188 190.82872009277344 355.63504028320312
v -32.52320861816406 190.83888244628906 350.47796630859375
v -37.6802864074707 190.82647705078125 350.423583984375
v -39.1484260559082 190.78070068359375 352.39044189453125
v -66.89463806152344 190.78070068359375 352.39044189453125
v -68.36277770996094 190.81619262695312 350.423583984375
v -74.79109191894531 138.46406555175781 353.91946411132812
v -74.79109191894531 138.46406555175781 388.03311157226562
v -77.09488677978516 138.49208068847656 389.83819580078125
v -77.08374786376953 138.48283386230469 395.20852661132812
v -71.88341522216797 138.46038818359375 395.04965209960938
v -70.07835388183594 138.43977355957031 392.745849609375
v -35.96470642089844 138.43977355957031 392.745849609375
v -34.15964508056641 138.37846374511719 395.04965209960938
v -28.95918083190918 138.26261901855469 395.20852661132812
v -28.94817352294922 138.25918579101562 389.83819580078125
v -31.2519702911377 138.31767272949219 388.03311157226562
v -31.2519702911377 138.31767272949219 353.91946411132812
v -28.94817352294922 138.25918579101562 352.11441040039062
v -28.95918083190918 138.26261901855469 346.74404907226562
v -34.15964508056641 138.37846374511719 346.9029541015625
v -35.96470642089844 138.43977355957031 349.20672607421875
v -70.07835388183594 138.43977355957031 349.20672607421875
v -71.88341522216797 138.46038818359375 346.9029541015625
v -77.08374786376953 138.48283386230469 346.74404907226562
v -77.09488677978516 138.49208068847656 352.11441040039062
# 40 vertices

vn -0.99816131591797 0.06061331555247 0
vn -0.61280977725983 -0.01100192870945 -0.79015386104584
vn -0.9976858496666 0.06798069924116 0.00125386670697
vn 0.01090346369892 0.06832382827997 0.99760359525681
vn 0.7941786646843 -0.01200218312442 0.60756582021713
vn 0 0.06071434170008 0.99815517663956
vn -0.79426473379135 -0.01190079469234 0.60745531320572
vn -0.00928802788258 0.06827500462532 0.99762332439423
vn 0.99769765138626 0.06781733036041 0.00039502055733
vn 0.61328303813934 -0.01093139313161 -0.78978759050369
vn 0.9981672167778 0.06051612272859 0
vn 0.61328017711639 -0.01089112833142 0.78979033231735
vn 0.99769723415375 0.06782379746437 -0.00039484922308
vn -0.00934097263962 0.068284727633 -0.99762213230133
vn -0.79424929618835 -0.01199985574931 -0.60747349262238
vn 0 0.06071434170008 -0.99815517663956
vn 0.79418289661407 -0.01189795322716 -0.60756230354309
vn 0.01086340472102 0.06831204891205 -0.99760484695435
vn -0.99768608808517 0.0679769217968 -0.0012538646115
vn -0.61281138658524 -0.01105113420635 0.79015189409256
vn -0.00596386147663 0.9999777674675 -0.00297716399655
vn -0.00242624618113 0.99999511241913 -0.0019671942573
vn 0 0 0
vn 0.02259551919997 0.99974447488785 0.0006894551334
vn 0.02351810224354 0.99972343444824 0.00006492352259
vn 0.01137512084097 0.99993169307709 0.00268346839584
vn 0.02188264764845 0.99975979328156 0.00124906259589
vn 0.01138470042497 0.99993163347244 -0.00267284782603
vn 0.02353725768626 0.99972295761108 -0.00004368530426
vn -0.00475087808445 0.99998325109482 0.0033081388101
vn -0.0036804205738 0.9999908208847 0.00220540328883
vn -0.00346274115145 0.99999099969864 -0.00245035113767
vn -0.00442435219884 0.99998342990875 -0.00367555883713
vn 0.02261468023062 0.99974405765533 -0.00066821608925
vn 0.02188265137374 0.99975979328156 -0.00124906096607
vn -0.00563735608011 0.99998068809509 0.00260973535478
vn -0.00242624641396 0.99999511241913 0.00196719449013
vn -0.02448235079646 -0.99969989061356 -0.00084731006064
vn -0.02228722348809 -0.99975144863129 0.0005937590031
vn -0.00463525112718 -0.99998873472214 -0.00104493869003
vn -0.00461650406942 -0.99998879432678 0.00102619314566
vn -0.01752710156143 -0.99984610080719 -0.00076285022078
vn -0.01758813299239 -0.99984496831894 0.00082396727521
vn -0.02457388304174 -0.99969756603241 0.00093897874467
vn -0.02638016454875 -0.99965119361877 0.00123585551046
vn -0.02228722348809 -0.99975144863129 -0.00059375853743
vn -0.02628863602877 -0.9996537566185 -0.00114418752491
vn -0.00656076567248 -0.99997824430466 -0.00071195140481
vn -0.00436964863911 -0.99998897314072 0.00171089707874
vn -0.00695284409449 -0.99997460842133 -0.00156740075909
vn -0.00692472374067 -0.9999748468399 0.00153928238433
vn -0.00653264531866 -0.99997842311859 0.00068383320468
vn -0.00436964863911 -0.99998897314072 -0.00171089696232
# 53 normals

vt 0.181281670928 0.79026859998703 0
vt 0.1981105953455 0.78924834728241 0
vt 0.1981105953455 0.78035688400269 0
vt 0.181281670928 0.77933657169342 0
vt 0.19809910655022 0.77988636493683 0
vt 0.18126025795937 0.77875816822052 0
vt 0.19809706509113 0.77823370695114 0
vt 0.1812574416399 0.77703720331192 0
vt 0.21555522084236 0.77703720331192 0
vt 0.19870387017727 0.7781800031662 0
vt 0.19874078035355 0.77983355522156 0
vt 0.21556031703949 0.77870464324951 0
vt 0.19872602820396 0.78030455112457 0
vt 0.21553625166416 0.77928364276886 0
vt 0.19872602820396 0.78920096158981 0
vt 0.21553625166416 0.79022169113159 0
vt 0.19873750209808 0.78967148065567 0
vt 0.21558654308319 0.79080021381378 0
vt 0.19873279333115 0.79132497310638 0
vt 0.21562577784061 0.79246759414673 0
vt 0.19810931384563 0.79316133260727 0
vt 0.18122960627079 0.79435777664185 0
vt 0.18123278021812 0.7960102558136 0
vt 0.1981105953455 0.79488217830658 0
vt 0.1812070608139 0.79648065567017 0
vt 0.19806152582169 0.79546058177948 0
vt 0.1812070608139 0.80537140369415 0
vt 0.19806152582169 0.80639159679413 0
vt 0.18123278021812 0.80584186315536 0
vt 0.1981105953455 0.80697000026703 0
vt 0.18122960627079 0.80749428272247 0
vt 0.19810931384563 0.80869078636169 0
vt 0.19870387017727 0.80859178304672 0
vt 0.2155968695879 0.80744922161102 0
vt 0.21559216082096 0.80579560995102 0
vt 0.19874310493469 0.80692434310913 0
vt 0.21560367941856 0.80532509088516 0
vt 0.19879339635372 0.80634582042694 0
vt 0.21560367941856 0.79642868041992 0
vt 0.19879339635372 0.79540777206421 0
vt 0.21558885276318 0.79595774412155 0
vt 0.19876934587955 0.79482877254486 0
vt 0.21562577784061 0.79430413246155 0
vt 0.19877441227436 0.79316133260727 0
vt 0.1812574416399 0.79256796836853 0
vt 0.19809706509113 0.79137146472931 0
vt 0.19809910655022 0.78971874713898 0
vt 0.18126025795937 0.79084706306458 0
vt 0.21562407910824 0.76519930362701 0
vt 0.21562577784061 0.76358371973038 0
vt 0.21401029825211 0.76356673240662 0
vt 0.20278252661228 0.76519936323166 0
vt 0.2033821195364 0.76565933227539 0
vt 0.2048586755991 0.76418298482895 0
vt 0.20439869165421 0.76356679201126 0
vt 0.20278291404247 0.76358383893967 0
vt 0.2048586755991 0.77582770586014 0
vt 0.2033821195364 0.7743513584137 0
vt 0.21355050802231 0.7641829252243 0
vt 0.21502669155598 0.7656592130661 0
vt 0.21502669155598 0.77435123920441 0
vt 0.21355050802231 0.77582764625549 0
vt 0.20278252661228 0.77481126785278 0
vt 0.20278291404247 0.77642673254013 0
vt 0.20439869165421 0.77644383907318 0
vt 0.21401029825211 0.77644377946854 0
vt 0.21562577784061 0.77642673254013 0
vt 0.21562407910824 0.77481114864349 0
vt 0.18289043009281 0.76131093502045 0
vt 0.1812608987093 0.76126110553741 0
vt 0.1812574416399 0.76294362545013 0
vt 0.19414195418358 0.77567231655121 0
vt 0.19414195418358 0.76203262805939 0
vt 0.18345609307289 0.76203262805939 0
vt 0.18345609307289 0.77567231655121 0
vt 0.18289043009281 0.77639400959015 0
vt 0.18197932839394 0.77419596910477 0
vt 0.1812574416399 0.77476143836975 0
vt 0.1812608987093 0.77644383907318 0
vt 0.18197932839394 0.76350903511047 0
vt 0.19470745325088 0.77639406919479 0
vt 0.19633653759956 0.77644383907318 0
vt 0.19634003937244 0.7747614979744 0
vt 0.19561825692654 0.77419596910477 0
vt 0.19561825692654 0.76350915431976 0
vt 0.19634003937244 0.76294362545013 0
vt 0.19633653759956 0.76126116514206 0
vt 0.19470745325088 0.76131093502045 0
# 88 texture coordinates

o Obelisque.2
usemtl Mat.1
f 22/4/1 4/3/1 3/2/1 21/1/1
f 23/6/2 5/5/2 4/3/2 22/4/2
f 24/8/3 6/7/3 5/5/3 23/6/3
f 25/12/4 7/11/4 6/10/4 24/9/4
f 26/14/5 8/13/5 7/11/5 25/12/5
f 27/16/6 9/15/6 8/13/6 26/14/6
f 28/18/7 10/17/7 9/15/7 27/16/7
f 29/20/8 11/19/8 10/17/8 28/18/8
f 30/24/9 12/23/9 11/22/9 29/21/9
f 31/26/10 13/25/10 12/23/10 30/24/10
f 32/28/11 14/27/11 13/25/11 31/26/11
f 33/30/12 15/29/12 14/27/12 32/28/12
f 34/32/13 16/31/13 15/29/13 33/30/13
f 35/36/14 17/35/14 16/34/14 34/33/14
f 36/38/15 18/37/15 17/35/15 35/36/15
f 37/40/16 19/39/16 18/37/16 36/38/16
f 38/42/17 20/41/17 19/39/17 37/40/17
f 39/44/18 1/43/18 20/41/18 38/42/18
f 40/48/19 2/47/19 1/46/19 39/45/19
f 21/1/20 3/2/20 2/47/20 40/48/20
f 10/51/21 11/50/22 12/49/21
f 7/55/24 8/54/26 4/53/25 5/52/24
f 5/52/24 6/56/27 7/55/24
f 18/62/23 19/57/28 3/58/29 4/53/25 8/54/26 9/59/30 13/60/31 14/61/32
f 12/49/21 13/60/31 9/59/30 10/51/21
f 20/65/34 1/64/35 2/63/34
f 2/63/34 3/58/29 19/57/28 20/65/34
f 15/68/36 16/67/37 17/66/36
f 17/66/36 18/62/33 14/61/32 15/68/36
f 30/71/38 29/70/39 28/69/38
f 22/85/51 21/84/50 37/72/40 36/75/43 32/77/45 31/80/47 27/74/42 26/73/41
f 33/78/44 32/77/45 36/75/43 35/76/44
f 35/76/44 34/79/46 33/78/44
f 28/69/38 27/74/42 31/80/47 30/71/38
f 40/83/48 39/82/49 38/81/48
f 25/88/52 24/87/53 23/86/52
f 23/86/52 22/85/51 26/73/41 25/88/52
f 38/81/48 37/72/40 21/84/50 40/83/48

