# WaveFront *.obj file (generated by CINEMA 4D)

mtllib ./Obelisque1.mtl

v -80.52232360839844 85.92881011962891 398.47708129882812
v -25.52073860168457 85.92881011962891 398.47708129882812
v -25.52073860168457 85.92881011962891 343.47549438476562
v -80.52232360839844 85.92881011962891 343.47549438476562
v -74.96527099609375 91.1173095703125 398.13150024414062
v -31.07778739929199 91.1173095703125 398.13150024414062
v -25.8663158416748 91.1173095703125 392.9200439453125
v -25.8663158416748 91.1173095703125 349.03256225585938
v -31.07778739929199 91.1173095703125 343.82107543945312
v -74.96527099609375 91.1173095703125 343.82107543945312
v -80.17674255371094 91.1173095703125 392.9200439453125
v -80.17674255371094 91.1173095703125 349.03256225585938
v -72.86528015136719 91.89095306396484 395.53277587890625
v -33.17778015136719 91.89095306396484 395.53277587890625
v -28.46504402160645 91.89095306396484 390.82003784179688
v -28.46504402160645 91.89095306396484 351.13253784179688
v -33.17778015136719 91.89095306396484 346.4197998046875
v -72.86528015136719 91.89095306396484 346.4197998046875
v -77.57801818847656 91.89095306396484 390.82003784179688
v -77.57801818847656 91.89095306396484 351.13253784179688
v -74.79109191894531 137.73283386230469 353.91946411132812
v -74.79109191894531 137.73283386230469 388.03311157226562
v -77.09488677978516 137.76084899902344 389.83819580078125
v -77.08374786376953 137.75160217285156 395.20852661132812
v -71.88341522216797 137.72915649414062 395.04965209960938
v -70.07835388183594 137.70855712890625 392.745849609375
v -35.96470642089844 137.70855712890625 392.745849609375
v -34.15964508056641 137.64723205566406 395.04965209960938
v -28.95918083190918 137.53138732910156 395.20852661132812
v -28.94817352294922 137.5279541015625 389.83819580078125
v -31.2519702911377 137.58645629882812 388.03311157226562
v -31.2519702911377 137.58645629882812 353.91946411132812
v -28.94817352294922 137.5279541015625 352.11441040039062
v -28.95918083190918 137.53138732910156 346.74404907226562
v -34.15964508056641 137.64723205566406 346.9029541015625
v -35.96470642089844 137.70855712890625 349.20672607421875
v -70.07835388183594 137.70855712890625 349.20672607421875
v -71.88341522216797 137.72915649414062 346.9029541015625
v -77.08374786376953 137.75160217285156 346.74404907226562
v -77.09488677978516 137.76084899902344 352.11441040039062
# 40 vertices

vn -0.00737217720598 0.06506372243166 -0.99785387516022
vn 0.00780805572867 0.06494098156691 -0.99785858392715
vn 0.01561561692506 0.06342069804668 -0.99786472320557
vn -0.01474393904209 0.06366661190987 -0.99786227941513
vn -0.99780040979385 0.06628812849522 -0.00041400402552
vn -0.99780040979385 0.06628812849522 0.00041399564361
vn -0.99781137704849 0.06611907482147 0.0008279911126
vn -0.99781137704849 0.06611907482147 -0.00082800787641
vn 0 0.95843094587326 0.28532466292381
vn -0.78319615125656 -0.01028552185744 0.62168961763382
vn 0.7830982208252 -0.01026090607047 0.62181341648102
vn 0.28532466292381 0.95843094587326 0
vn 0.62169098854065 -0.01031216606498 0.78319472074509
vn 0.62169098854065 -0.01031216979027 -0.78319472074509
vn 0 0.95843094587326 -0.28532466292381
vn 0.78309828042984 -0.01026090513915 -0.62181335687637
vn -0.78319621086121 -0.01028552651405 -0.62168955802917
vn -0.28532466292381 0.95843094587326 0
vn -0.6218249797821 -0.01025322917849 -0.78308910131454
vn -0.6218249797821 -0.01025323197246 0.78308910131454
vn 0.00656092399731 0.99997824430466 -0.00071164226392
vn 0.00436990661547 0.99998897314072 0.00171132374089
vn 0 0 0
vn 0.02457398362458 0.99969756603241 0.00093892705627
vn 0.0175883024931 0.99984496831894 0.00082407047739
vn 0.02638041600585 0.99965119361877 0.00123601034284
vn 0.00695278635249 0.99997460842133 -0.00156730494928
vn 0.0046352124773 0.99998873472214 -0.00104487477802
vn 0.02228698693216 0.99975144863129 -0.0005941716372
vn 0.0244824513793 0.99969989061356 -0.00084726297064
vn 0.02228698506951 0.99975144863129 0.00059417053126
vn 0.00653277849779 0.99997842311859 0.00068349827779
vn 0.00461644912139 0.99998879432678 0.0010261121206
vn 0.00692464085296 0.9999748468399 0.00153916084673
vn 0.02628889493644 0.9996537566185 -0.001144346199
vn 0.01752727292478 0.99984610080719 -0.00076295604231
vn 0.00436990661547 0.99998897314072 -0.00171132374089
vn 0 -1 0
vn 0 0.06071433052421 0.99815517663956
vn 0.99814534187317 0.06087600439787 0
vn 0 0.06071433052421 -0.99815517663956
vn -0.99815714359283 0.06068231910467 0
vn 0.00780805619434 0.06494098156691 0.99785858392715
vn -0.00737216928974 0.06506372988224 0.99785387516022
vn -0.01474392320961 0.06366661936045 0.99786227941513
vn 0.01561561785638 0.06342069804668 0.99786472320557
vn 0.99779015779495 0.06644280999899 0.00045080602285
vn 0.99779015779495 0.06644281744957 -0.00045079429401
vn 0.9977907538414 0.06642846018076 -0.00090158852981
vn 0.99779081344604 0.06642845273018 0.0009016119875
# 50 normals

vt 0.14901286363602 0.74338322877884 0
vt 0.15063560009003 0.74489837884903 0
vt 0.16345131397247 0.74489837884903 0
vt 0.16507405042648 0.74338322877884 0
vt 0.16255135834217 0.75850945711136 0
vt 0.16406992077827 0.75851607322693 0
vt 0.15153552591801 0.7584855556488 0
vt 0.15001693367958 0.75845170021057 0
vt 0.13255055248737 0.72691935300827 0
vt 0.13417316973209 0.72843438386917 0
vt 0.14698792994022 0.72843438386917 0
vt 0.14861053228378 0.72691935300827 0
vt 0.14608803391457 0.74205386638641 0
vt 0.1476561576128 0.7420511841774 0
vt 0.13507302105427 0.74205386638641 0
vt 0.13350492715836 0.7420511841774 0
vt 0.15090411901474 0.72843450307846 0
vt 0.15151734650135 0.72866034507751 0
vt 0.16310660541058 0.72866034507751 0
vt 0.16371983289719 0.72843450307846 0
vt 0.17232926189899 0.74339878559113 0
vt 0.17148603498936 0.74364984035492 0
vt 0.17058180272579 0.75851607322693 0
vt 0.1713292747736 0.75849616527557 0
vt 0.17017944157124 0.74203753471375 0
vt 0.16927510499954 0.72717034816742 0
vt 0.16843186318874 0.72691935300827 0
vt 0.16943188011646 0.7420442700386 0
vt 0.13417325913906 0.71267914772034 0
vt 0.13478645682335 0.71290510892868 0
vt 0.146375477314 0.71290510892868 0
vt 0.14698870480061 0.71267914772034 0
vt 0.17474758625031 0.7434384226799 0
vt 0.17390438914299 0.74368935823441 0
vt 0.1730001270771 0.75851607322693 0
vt 0.17374762892723 0.75849705934525 0
vt 0.17501610517502 0.74199712276459 0
vt 0.17411185801029 0.72717034816742 0
vt 0.17326861619949 0.72691935300827 0
vt 0.17426861822605 0.7419781088829 0
vt 0.15124881267548 0.74512422084808 0
vt 0.1628380715847 0.74512422084808 0
vt 0.16991090774536 0.74339127540588 0
vt 0.1690676510334 0.74364227056503 0
vt 0.16816335916519 0.75850933790207 0
vt 0.16891089081764 0.75851607322693 0
vt 0.17259778082371 0.74203675985336 0
vt 0.17169347405434 0.72717034816742 0
vt 0.17085029184818 0.72691935300827 0
vt 0.17185024917126 0.74201679229736 0
vt 0.13478633761406 0.72866022586823 0
vt 0.14637473225594 0.72866022586823 0
vt 0.16749246418476 0.74338090419769 0
vt 0.16664922237396 0.74363195896149 0
vt 0.16574490070343 0.75850695371628 0
vt 0.16649247705936 0.75851607322693 0
vt 0.1677610129118 0.7420454621315 0
vt 0.16685666143894 0.72717034816742 0
vt 0.16601344943047 0.72691935300827 0
vt 0.16701345145702 0.7420546412468 0
vt 0.15301521122456 0.71237915754318 0
vt 0.15152208507061 0.71233361959457 0
vt 0.15151889622211 0.71387553215027 0
vt 0.16384626924992 0.71237915754318 0
vt 0.16332800686359 0.71304059028625 0
vt 0.1646811068058 0.71439379453659 0
vt 0.16534258425236 0.71387553215027 0
vt 0.15218035876751 0.71439379453659 0
vt 0.15353347361088 0.71304059028625 0
vt 0.16533941030502 0.71233361959457 0
vt 0.16384626924992 0.72620278596878 0
vt 0.16533941030502 0.72624850273132 0
vt 0.16534258425236 0.72470664978027 0
vt 0.15301521122456 0.72620278596878 0
vt 0.15353347361088 0.72554141283035 0
vt 0.15218035876751 0.72418832778931 0
vt 0.15151889622211 0.72470664978027 0
vt 0.1646811068058 0.72418832778931 0
vt 0.16332800686359 0.72554141283035 0
vt 0.15152208507061 0.72624850273132 0
vt 0.14834199845791 0.74272465705872 0
vt 0.13255055248737 0.74272465705872 0
vt 0.13255055248737 0.75851607322693 0
vt 0.14834199845791 0.75851607322693 0
vt 0.15233117341995 0.74203968048096 0
vt 0.16229277849197 0.74203968048096 0
vt 0.13560025393963 0.72624850273132 0
vt 0.14556171000004 0.72624850273132 0
vt 0.1520626693964 0.75850343704224 0
vt 0.16202427446842 0.75850343704224 0
vt 0.13560009002686 0.74204570055008 0
vt 0.14556097984314 0.74204570055008 0
vt 0.14928136765957 0.72691935300827 0
vt 0.16534258425236 0.72691935300827 0
vt 0.16281987726688 0.74202179908752 0
vt 0.16433848440647 0.74198794364929 0
vt 0.15180407464504 0.74204570055008 0
vt 0.15028551220894 0.74205231666565 0
vt 0.13255055248737 0.71116405725479 0
vt 0.14861141145229 0.71116405725479 0
vt 0.14608877897263 0.72623139619827 0
vt 0.14765696227551 0.72623252868652 0
vt 0.13507315516472 0.72623139619827 0
vt 0.133504986763 0.72623252868652 0
# 104 texture coordinates

o Obelisque.1
usemtl Mat.1
f 4/4/2 10/3/2 9/2/1 3/1/1
f 39/6/3 38/5/3 10/3/2 4/4/2
f 34/8/4 3/1/1 9/2/1 35/7/4
f 1/12/6 11/11/6 12/10/5 4/9/5
f 24/14/7 23/13/7 11/11/6 1/12/6
f 39/16/8 4/9/5 12/10/5 40/15/8
f 6/20/9 14/19/9 13/18/9 5/17/9
f 28/24/10 27/23/10 14/22/10 6/21/10
f 25/28/11 5/27/11 13/26/11 26/25/11
f 8/32/12 16/31/12 15/30/12 7/29/12
f 33/36/13 32/35/13 16/34/13 8/33/13
f 30/40/14 7/39/14 15/38/14 31/37/14
f 10/3/15 18/42/15 17/41/15 9/2/15
f 38/46/16 37/45/16 18/44/16 10/43/16
f 35/50/17 9/49/17 17/48/17 36/47/17
f 11/11/18 19/52/18 20/51/18 12/10/18
f 23/56/19 22/55/19 19/54/19 11/53/19
f 40/60/20 12/59/20 20/58/20 21/57/20
f 23/63/21 24/62/22 25/61/21
f 30/67/24 31/66/26 27/65/25 28/64/24
f 25/61/21 26/69/28 22/68/27 23/63/21
f 28/64/24 29/70/29 30/67/24
f 33/73/30 34/72/31 35/71/30
f 40/77/32 21/76/34 37/75/33 38/74/32
f 35/71/30 36/79/36 32/78/35 33/73/30
f 38/74/32 39/80/37 40/77/32
f 21/76/34 22/68/27 26/69/28 27/65/25 31/66/26 32/78/35 36/79/36 37/75/33
f 2/84/38 1/83/38 4/82/38 3/81/38
f 14/19/39 27/86/39 26/85/39 13/18/39
f 16/31/40 32/88/40 31/87/40 15/30/40
f 18/42/41 37/90/41 36/89/41 17/41/41
f 19/52/42 22/92/42 21/91/42 20/51/42
f 2/94/44 6/20/44 5/17/43 1/93/43
f 29/96/45 28/95/45 6/20/44 2/94/44
f 24/98/46 1/93/43 5/17/43 25/97/46
f 3/100/48 8/32/48 7/29/47 2/99/47
f 34/102/49 33/101/49 8/32/48 3/100/48
f 29/104/50 2/99/47 7/29/47 30/103/50

