# WaveFront *.obj file (generated by CINEMA 4D)

mtllib ./Obelisque.mtl

v -102.37024688720703 -7.51821517944336 420.32501220703125
v -102.37024688720703 7.51821517944336 420.32501220703125
v -3.67281031608582 -7.51821517944336 420.32501220703125
v -3.67281031608582 7.51821517944336 420.32501220703125
v -3.67281031608582 -7.51821517944336 321.6275634765625
v -3.67281031608582 7.51821517944336 321.6275634765625
v -102.37024688720703 -7.51821517944336 321.6275634765625
v -102.37024688720703 7.51821517944336 321.6275634765625
v -78.09068298339844 7.51821517944336 396.04544067382812
v -27.9523811340332 7.51821517944336 396.04544067382812
v -27.9523811340332 7.51821517944336 345.90713500976562
v -78.09068298339844 7.51821517944336 345.90713500976562
v -102.78780364990234 32.23046493530273 420.74258422851562
v -3.25525689125061 32.23046493530273 420.74258422851562
v -3.25525689125061 32.23046493530273 321.21002197265625
v -102.78780364990234 32.23046493530273 321.21002197265625
v -102.78780364990234 45.64363098144531 420.74258422851562
v -3.25525689125061 45.64363098144531 420.74258422851562
v -3.25525689125061 45.64363098144531 321.21002197265625
v -102.78780364990234 45.64363098144531 321.21002197265625
v -80.74179077148438 68.1197509765625 398.69656372070312
v -25.30126762390137 68.1197509765625 398.69656372070312
v -25.30126762390137 68.1197509765625 343.25604248046875
v -80.74179077148438 68.1197509765625 343.25604248046875
v -103.44948577880859 82.25795745849609 421.40423583984375
v -2.59357786178589 82.25795745849609 421.40423583984375
v -2.59357786178589 82.25795745849609 320.54833984375
v -103.44948577880859 82.25795745849609 320.54833984375
v -80.52232360839844 82.25795745849609 398.47708129882812
v -25.52073860168457 82.25795745849609 398.47708129882812
v -25.52073860168457 82.25795745849609 343.47549438476562
v -80.52232360839844 82.25795745849609 343.47549438476562
v -80.52232360839844 85.92881011962891 398.47708129882812
v -25.52073860168457 85.92881011962891 398.47708129882812
v -25.52073860168457 85.92881011962891 343.47549438476562
v -80.52232360839844 85.92881011962891 343.47549438476562
v -74.96527099609375 91.1173095703125 398.13150024414062
v -31.07778739929199 91.1173095703125 398.13150024414062
v -25.8663158416748 91.1173095703125 392.9200439453125
v -25.8663158416748 91.1173095703125 349.03256225585938
v -31.07778739929199 91.1173095703125 343.82107543945312
v -74.96527099609375 91.1173095703125 343.82107543945312
v -80.17674255371094 91.1173095703125 392.9200439453125
v -80.17674255371094 91.1173095703125 349.03256225585938
v -72.86528015136719 91.89095306396484 395.53277587890625
v -33.17778015136719 91.89095306396484 395.53277587890625
v -28.46504402160645 91.89095306396484 390.82003784179688
v -28.46504402160645 91.89095306396484 351.13253784179688
v -33.17778015136719 91.89095306396484 346.4197998046875
v -72.86528015136719 91.89095306396484 346.4197998046875
v -77.57801818847656 91.89095306396484 390.82003784179688
v -77.57801818847656 91.89095306396484 351.13253784179688
v -74.79109191894531 137.73283386230469 353.91946411132812
v -74.79109191894531 137.73283386230469 388.03311157226562
v -77.09488677978516 137.76084899902344 389.83819580078125
v -77.08374786376953 137.75160217285156 395.20852661132812
v -71.88341522216797 137.72915649414062 395.04965209960938
v -70.07835388183594 137.70855712890625 392.745849609375
v -35.96470642089844 137.70855712890625 392.745849609375
v -34.15964508056641 137.64723205566406 395.04965209960938
v -28.95918083190918 137.53138732910156 395.20852661132812
v -28.94817352294922 137.5279541015625 389.83819580078125
v -31.2519702911377 137.58645629882812 388.03311157226562
v -31.2519702911377 137.58645629882812 353.91946411132812
v -28.94817352294922 137.5279541015625 352.11441040039062
v -28.95918083190918 137.53138732910156 346.74404907226562
v -34.15964508056641 137.64723205566406 346.9029541015625
v -35.96470642089844 137.70855712890625 349.20672607421875
v -70.07835388183594 137.70855712890625 349.20672607421875
v -71.88341522216797 137.72915649414062 346.9029541015625
v -77.08374786376953 137.75160217285156 346.74404907226562
v -77.09488677978516 137.76084899902344 352.11441040039062
v -73.51985168457031 190.92913818359375 350.47796630859375
v -73.52107238769531 190.93560791015625 355.63504028320312
v -71.60736846923828 190.89254760742188 357.10317993164062
v -71.60736846923828 190.89254760742188 384.84939575195312
v -73.52107238769531 190.93560791015625 386.31753540039062
v -73.51985168457031 190.92913818359375 391.474609375
v -68.36277770996094 190.81619262695312 391.52902221679688
v -66.89463806152344 190.78070068359375 389.5621337890625
v -39.1484260559082 190.78070068359375 389.5621337890625
v -37.6802864074707 190.82647705078125 391.52902221679688
v -32.52320861816406 190.83888244628906 391.474609375
v -32.52877807617188 190.82872009277344 386.31753540039062
v -34.43568801879883 190.83067321777344 384.84939575195312
v -34.43568801879883 190.83067321777344 357.10317993164062
v -32.52877807617188 190.82872009277344 355.63504028320312
v -32.52320861816406 190.83888244628906 350.47796630859375
v -37.6802864074707 190.82647705078125 350.423583984375
v -39.1484260559082 190.78070068359375 352.39044189453125
v -66.89463806152344 190.78070068359375 352.39044189453125
v -68.36277770996094 190.81619262695312 350.423583984375
v -74.79109191894531 138.46406555175781 353.91946411132812
v -74.79109191894531 138.46406555175781 388.03311157226562
v -77.09488677978516 138.49208068847656 389.83819580078125
v -77.08374786376953 138.48283386230469 395.20852661132812
v -71.88341522216797 138.46038818359375 395.04965209960938
v -70.07835388183594 138.43977355957031 392.745849609375
v -35.96470642089844 138.43977355957031 392.745849609375
v -34.15964508056641 138.37846374511719 395.04965209960938
v -28.95918083190918 138.26261901855469 395.20852661132812
v -28.94817352294922 138.25918579101562 389.83819580078125
v -31.2519702911377 138.31767272949219 388.03311157226562
v -31.2519702911377 138.31767272949219 353.91946411132812
v -28.94817352294922 138.25918579101562 352.11441040039062
v -28.95918083190918 138.26261901855469 346.74404907226562
v -34.15964508056641 138.37846374511719 346.9029541015625
v -35.96470642089844 138.43977355957031 349.20672607421875
v -70.07835388183594 138.43977355957031 349.20672607421875
v -71.88341522216797 138.46038818359375 346.9029541015625
v -77.08374786376953 138.48283386230469 346.74404907226562
v -77.09488677978516 138.49208068847656 352.11441040039062
v -65.59276580810547 232.94194030761719 353.193603515625
v -70.83937835693359 233.02571105957031 353.41580200195312
v -70.83676910400391 233.03175354003906 358.40505981445312
v -69.10244750976562 233.01101684570312 359.60812377929688
v -69.10244750976562 233.01101684570312 382.344482421875
v -70.83676910400391 233.03175354003906 383.54754638671875
v -70.83937835693359 233.02571105957031 388.53680419921875
v -65.59276580810547 232.94194030761719 388.75900268554688
v -64.38970947265625 232.91883850097656 387.05722045898438
v -41.65335083007812 232.91883850097656 387.05722045898438
v -40.45029449462891 232.92384338378906 388.75900268554688
v -35.22079849243164 232.89678955078125 388.53680419921875
v -35.23882675170898 232.92384338378906 383.54754638671875
v -36.94061279296875 232.91883850097656 382.344482421875
v -36.94061279296875 232.91883850097656 359.60812377929688
v -35.23882675170898 232.92384338378906 358.40505981445312
v -35.22079849243164 232.89678955078125 353.41580200195312
v -40.45029449462891 232.92384338378906 353.193603515625
v -41.65335083007812 232.91883850097656 354.8953857421875
v -64.38970947265625 232.91883850097656 354.8953857421875
v -73.51985168457031 191.8858642578125 350.47796630859375
v -73.52107238769531 191.892333984375 355.63504028320312
v -71.60736846923828 191.84927368164062 357.10317993164062
v -71.60736846923828 191.84927368164062 384.84939575195312
v -73.52107238769531 191.892333984375 386.31753540039062
v -73.51985168457031 191.8858642578125 391.474609375
v -68.36277770996094 191.77291870117188 391.52902221679688
v -66.89463806152344 191.7374267578125 389.5621337890625
v -39.1484260559082 191.7374267578125 389.5621337890625
v -37.6802864074707 191.783203125 391.52902221679688
v -32.52320861816406 191.79560852050781 391.474609375
v -32.52877807617188 191.78544616699219 386.31753540039062
v -34.43568801879883 191.78739929199219 384.84939575195312
v -34.43568801879883 191.78739929199219 357.10317993164062
v -32.52877807617188 191.78544616699219 355.63504028320312
v -32.52320861816406 191.79560852050781 350.47796630859375
v -37.6802864074707 191.783203125 350.423583984375
v -39.1484260559082 191.7374267578125 352.39044189453125
v -66.89463806152344 191.7374267578125 352.39044189453125
v -68.36277770996094 191.77291870117188 350.423583984375
v -68.42197418212891 270.10552978515625 386.37673950195312
v -37.62108612060547 270.10552978515625 386.37673950195312
v -37.62108612060547 270.10552978515625 355.57586669921875
v -68.42197418212891 270.10552978515625 355.57586669921875
v -53.02153015136719 290.76467895507812 370.97628784179688
v -63.55607986450195 264.91702270507812 386.72232055664062
v -42.48698043823242 264.91702270507812 386.72232055664062
v -37.27550888061523 264.91702270507812 381.51083374023438
v -37.27550888061523 264.91702270507812 360.44174194335938
v -42.48698043823242 264.91702270507812 355.23028564453125
v -63.55607986450195 264.91702270507812 355.23028564453125
v -68.76754760742188 264.91702270507812 381.51083374023438
v -68.76754760742188 264.91702270507812 360.44174194335938
v -62.54793548583984 264.01174926757812 385.2154541015625
v -43.49512481689453 264.01174926757812 385.2154541015625
v -38.78238677978516 264.01174926757812 380.50271606445312
v -38.78238677978516 264.01174926757812 361.44989013671875
v -43.49512481689453 264.01174926757812 356.73715209960938
v -62.54793548583984 264.01174926757812 356.73715209960938
v -67.26067352294922 264.01174926757812 380.50271606445312
v -67.26067352294922 264.01174926757812 361.44989013671875
v -65.59276580810547 233.75572204589844 353.193603515625
v -70.83937835693359 233.83949279785156 353.41580200195312
v -70.83676910400391 233.84553527832031 358.40505981445312
v -69.10244750976562 233.82479858398438 359.60812377929688
v -69.10244750976562 233.82479858398438 382.344482421875
v -70.83676910400391 233.84553527832031 383.54754638671875
v -70.83937835693359 233.83949279785156 388.53680419921875
v -65.59276580810547 233.75572204589844 388.75900268554688
v -64.38970947265625 233.73262023925781 387.05722045898438
v -41.65335083007812 233.73262023925781 387.05722045898438
v -40.45029449462891 233.73760986328125 388.75900268554688
v -35.22079849243164 233.7105712890625 388.53680419921875
v -35.23882675170898 233.73760986328125 383.54754638671875
v -36.94061279296875 233.73262023925781 382.344482421875
v -36.94061279296875 233.73262023925781 359.60812377929688
v -35.23882675170898 233.73760986328125 358.40505981445312
v -35.22079849243164 233.7105712890625 353.41580200195312
v -40.45029449462891 233.73760986328125 353.193603515625
v -41.65335083007812 233.73262023925781 354.8953857421875
v -64.38970947265625 233.73262023925781 354.8953857421875
# 193 vertices

vn 0 0 1
vn 1 0 0
vn 0 0 -1
vn -1 0 0
vn 0 1 -0.0000000006877
vn 0 1 -0.00000000045846
vn 0 1 0
vn 0 -1 0
vn 0 -0.70689034461975 0.70732319355011
vn 0.70732319355011 -0.70689034461975 0
vn 0 -0.70689034461975 -0.70732319355011
vn -0.70732319355011 -0.70689034461975 0
vn 0 0.70024311542511 0.71390450000763
vn 0.71390450000763 0.70024311542511 0
vn 0 0.70024311542511 -0.71390450000763
vn -0.71390450000763 0.70024311542511 0
vn 0 -0.84890604019165 0.52854382991791
vn 0.52854382991791 -0.84890604019165 0
vn 0 -0.84890604019165 -0.52854382991791
vn -0.52854382991791 -0.84890604019165 0
# 20 normals

vt 0.10003313422203 0.76286721229553 0
vt 0.10003313422203 0.76515996456146 0
vt 0.11508242040873 0.76515996456146 0
vt 0.11508242040873 0.76286721229553 0
vt 0.11609042435884 0.7817617058754 0
vt 0.11609042435884 0.78405445814133 0
vt 0.13113968074322 0.78405445814133 0
vt 0.13113968074322 0.7817617058754 0
vt 0.08405032008886 0.76286721229553 0
vt 0.08405032008886 0.76515996456146 0
vt 0.0990995913744 0.76515996456146 0
vt 0.0990995913744 0.76286721229553 0
vt 0.11609042435884 0.78486067056656 0
vt 0.11609042435884 0.78715336322784 0
vt 0.13113968074322 0.78715336322784 0
vt 0.13113968074322 0.78486067056656 0
vt 0.08392296731472 0.80757588148117 0
vt 0.08741890639067 0.8040799498558 0
vt 0.08741890639067 0.79569339752197 0
vt 0.08392296731472 0.79219746589661 0
vt 0.1001076027751 0.79219746589661 0
vt 0.1001076027751 0.80724674463272 0
vt 0.11515686661005 0.80724674463272 0
vt 0.11515686661005 0.79219746589661 0
vt 0.1001076027751 0.7763420343399 0
vt 0.1038097217679 0.78004413843155 0
vt 0.11145474761724 0.78004413843155 0
vt 0.11515686661005 0.7763420343399 0
vt 0.11145474761724 0.78768920898438 0
vt 0.11515686661005 0.79139125347137 0
vt 0.1038097217679 0.78768920898438 0
vt 0.1001076027751 0.79139125347137 0
vt 0.08768875151873 0.76596617698669 0
vt 0.08392296731472 0.7697342634201 0
vt 0.0990995913744 0.7697342634201 0
vt 0.09533381462097 0.76596617698669 0
vt 0.11972886323929 0.79800629615784 0
vt 0.11596307903528 0.80177438259125 0
vt 0.13113968074322 0.80177438259125 0
vt 0.12737390398979 0.79800629615784 0
vt 0.10367158055305 0.76596617698669 0
vt 0.09990580379963 0.7697342634201 0
vt 0.11508242040873 0.7697342634201 0
vt 0.1113166436553 0.76596617698669 0
vt 0.11972886323929 0.78795957565308 0
vt 0.11596307903528 0.79172772169113 0
vt 0.13113968074322 0.79172772169113 0
vt 0.12737390398979 0.78795957565308 0
vt 0.08392296731472 0.77177947759628 0
vt 0.0990995913744 0.77177947759628 0
vt 0.11596307903528 0.80381959676743 0
vt 0.13113968074322 0.80381959676743 0
vt 0.09990580379963 0.77177947759628 0
vt 0.11508242040873 0.77177947759628 0
vt 0.11596307903528 0.79377293586731 0
vt 0.13113968074322 0.79377293586731 0
vt 0.08728452771902 0.77520662546158 0
vt 0.09573805332184 0.77520662546158 0
vt 0.11932460963726 0.80724674463272 0
vt 0.12777814269066 0.80724674463272 0
vt 0.10326734185219 0.77520662546158 0
vt 0.11172086745501 0.77520662546158 0
vt 0.11932460963726 0.7972000837326 0
vt 0.12777814269066 0.7972000837326 0
vt 0.08738540112972 0.78792881965637 0
vt 0.08392296731472 0.79139125347137 0
vt 0.09930136799812 0.79139125347137 0
vt 0.09583894908428 0.78792881965637 0
vt 0.09930136799812 0.77601283788681 0
vt 0.09583894908428 0.77947533130646 0
vt 0.08392296731472 0.77601283788681 0
vt 0.08738540112972 0.77947533130646 0
vt 0.0958054587245 0.79569339752197 0
vt 0.09930136799812 0.79219746589661 0
vt 0.0958054587245 0.8040799498558 0
vt 0.09930136799812 0.80757588148117 0
# 76 texture coordinates

o Obelisque
usemtl Mat.1
f 3/4/1 4/3/1 2/2/1 1/1/1
f 5/8/2 6/7/2 4/6/2 3/5/2
f 7/12/3 8/11/3 6/10/3 5/9/3
f 1/16/4 2/15/4 8/14/4 7/13/4
f 25/20/7 29/19/7 32/18/6 28/17/5
f 5/24/8 3/23/8 1/22/8 7/21/8
f 4/28/7 10/27/7 9/26/7 2/25/7
f 6/30/7 11/29/7 10/27/7 4/28/7
f 8/32/7 12/31/7 11/29/7 6/30/7
f 2/25/7 9/26/7 12/31/7 8/32/7
f 10/36/9 14/35/9 13/34/9 9/33/9
f 11/40/10 15/39/10 14/38/10 10/37/10
f 12/44/11 16/43/11 15/42/11 11/41/11
f 9/48/12 13/47/12 16/46/12 12/45/12
f 14/35/1 18/50/1 17/49/1 13/34/1
f 15/39/2 19/52/2 18/51/2 14/38/2
f 16/43/3 20/54/3 19/53/3 15/42/3
f 13/47/4 17/56/4 20/55/4 16/46/4
f 18/50/13 22/58/13 21/57/13 17/49/13
f 19/52/14 23/60/14 22/59/14 18/51/14
f 20/54/15 24/62/15 23/61/15 19/53/15
f 17/56/16 21/64/16 24/63/16 20/55/16
f 22/68/17 26/67/17 25/66/17 21/65/17
f 23/70/18 27/69/18 26/67/18 22/68/18
f 24/72/19 28/71/19 27/69/19 23/70/19
f 21/65/20 25/66/20 28/71/20 24/72/20
f 26/74/7 30/73/7 29/19/7 25/20/7
f 27/76/5 31/75/6 30/73/7 26/74/7
f 28/17/5 32/18/6 31/75/6 27/76/5
f 32/18/6 29/19/7 30/73/7 31/75/6

