# WaveFront *.obj file (generated by CINEMA 4D)

mtllib ./Dalle.mtl

v -51.76704406738281 -3.98932600021362 -51.76704406738281
v -51.76704406738281 -3.98932600021362 51.76704406738281
v 51.76704406738281 -3.98932600021362 51.76704406738281
v 51.76704406738281 -3.98932600021362 -51.76704406738281
v -53.20000076293945 -2.55637145042419 -53.20000076293945
v -53.20000076293945 2.55637145042419 53.20000076293945
v -53.20000076293945 -2.55637145042419 53.20000076293945
v 53.20000076293945 2.55637145042419 53.20000076293945
v -51.76704406738281 3.98932600021362 51.76704406738281
v -51.76704406738281 3.98932600021362 -51.76704406738281
v 51.76704406738281 3.98932600021362 -51.76704406738281
v 51.76704406738281 3.98932600021362 51.76704406738281
v 53.20000076293945 -2.55637145042419 53.20000076293945
v 53.20000076293945 2.55637145042419 -53.20000076293945
v 53.20000076293945 -2.55637145042419 -53.20000076293945
v -53.20000076293945 2.55637145042419 -53.20000076293945
v -53.20000076293945 -0.26847368478775 53.20000076293945
v -53.20000076293945 -0.26847368478775 -53.20000076293945
v 53.20000076293945 -0.26847368478775 -53.20000076293945
v 53.20000076293945 -0.26847368478775 53.20000076293945
# 20 vertices

vn 0 0 1
vn 1 0 0
vn 0 0 -1
vn -1 0 0
vn 0 1 0
vn 0 0.70710730552673 0.70710623264313
vn 0.70710623264313 0.70710730552673 0
vn 0 0.70710730552673 -0.70710623264313
vn -0.70710676908493 0.70710676908493 0
# 9 normals

vt 0.15351232886314 0.45307374000549 0
vt 0.15178954601288 0.45134377479553 0
vt 0.15169897675514 0.32946181297302 0
vt 0.15330016613007 0.3278671503067 0
vt 0.02981832623482 0.32887315750122 0
vt 0.02809554338455 0.32714331150055 0
vt 0.02990880608559 0.45075523853302 0
vt 0.02830761671066 0.45234990119934 0
vt 0.14971977472305 0.4492564201355 0
vt 0.03179225325584 0.44888865947723 0
vt 0.03188800811768 0.33096027374268 0
vt 0.14981552958488 0.3313285112381 0
vt 0.1546565592289 0.32651627063751 0
vt 0.1549941599369 0.45456147193909 0
vt 0.02695122361183 0.45370066165924 0
vt 0.02661371231079 0.32565522193909 0
# 16 texture coordinates

o Dalle
usemtl lpb_gradient
f 20/4/1 8/3/1 6/2/1 17/1/1
f 19/6/2 14/5/2 8/3/2 20/4/2
f 18/8/3 16/7/3 14/5/3 19/6/3
f 17/1/4 6/2/4 16/7/4 18/8/4
f 12/12/5 11/11/5 10/10/5 9/9/5
f 17/1/1 7/14/1 13/13/1 20/4/1
f 9/9/6 6/2/6 8/3/6 12/12/6
f 18/8/4 5/15/4 7/14/4 17/1/4
f 12/12/7 8/3/7 14/5/7 11/11/7
f 19/6/3 15/16/3 5/15/3 18/8/3
f 11/11/8 14/5/8 16/7/8 10/10/8
f 20/4/2 13/13/2 15/16/2 19/6/2
f 10/10/9 16/7/9 6/2/9 9/9/9

