# WaveFront *.obj file (generated by CINEMA 4D)

mtllib ./Parchemin.mtl

v -34.26384735107422 100.87346649169922 -4
v 34.26384735107422 100.87346649169922 -4
v -34.26384735107422 -0.32653558254242 -4
v 34.26384735107422 -0.32653558254242 -4
v 34.26384735107422 103.50803375244141 -9.13146495819092
v -34.26384735107422 103.50803375244141 -9.13146495819092
v 34.26384735107422 99.57076263427734 -14.06361961364746
v -34.26384735107422 99.57076263427734 -14.06361961364746
v 34.26384735107422 94.02173614501953 -13.14094924926758
v -34.26384735107422 94.02173614501953 -13.14094924926758
v 34.26384735107422 91.42984771728516 -8.16402626037598
v -34.26384735107422 91.42984771728516 -8.16402626037598
v 34.26384735107422 96.82038116455078 -5.35674333572388
v -34.26384735107422 96.82038116455078 -5.35674333572388
v 34.26384735107422 99.74985504150391 -10.98190021514893
v -34.26384735107422 99.74985504150391 -10.98190021514893
v 34.26384735107422 -2.96110415458679 -9.13146495819092
v -34.26384735107422 -2.96110415458679 -9.13146495819092
v 34.26384735107422 0.97616529464722 -14.06361961364746
v -34.26384735107422 0.97616529464722 -14.06361961364746
v 34.26384735107422 6.52519559860229 -13.14094924926758
v -34.26384735107422 6.52519559860229 -13.14094924926758
v 34.26384735107422 9.11707878112793 -8.16402626037598
v -34.26384735107422 9.11707878112793 -8.16402626037598
v 34.26384735107422 3.72654557228088 -5.35674333572388
v -34.26384735107422 3.72654557228088 -5.35674333572388
v 34.26384735107422 0.79707551002502 -10.98190021514893
v -34.26384735107422 0.79707551002502 -10.98190021514893
# 28 vertices

vn 0 0.52118390798569 0.85344439744949
vn 0 -0.52118372917175 0.85344451665878
vn 0 0.99503535032272 -0.09952185302973
vn 0 0.35803857445717 -0.93370682001114
vn 0 -0.58729720115662 -0.80937135219574
vn 0 -0.95376747846603 0.30054545402527
vn 0 0.30054566264153 0.95376741886139
vn 0 0.88693314790726 0.46189776062965
vn 0 -0.88693338632584 0.46189731359482
vn 0 -0.3005459010601 0.95376735925674
vn 0 -0.99503540992737 -0.09952164441347
vn 0 -0.35803866386414 -0.93370676040649
vn 0 0.58729755878448 -0.80937111377716
vn 0 0.95376735925674 0.30054587125778
# 14 normals

vt 0.42141857743263 0.95971298217773 0
vt 0.42180716991425 0.85823708772659 0
vt 0.353092700243 0.85797393321991 0
vt 0.35270404815674 0.95944982767105 0
vt 0.35268187522888 0.96523380279541 0
vt 0.42139640450478 0.96549695730209 0
vt 0.3526576757431 0.97156196832657 0
vt 0.42137217521667 0.97182512283325 0
vt 0.35263603925705 0.9772025346756 0
vt 0.42135053873062 0.97746568918228 0
vt 0.35261449217796 0.9828292131424 0
vt 0.42132902145386 0.98309236764908 0
vt 0.35259112715721 0.98892349004745 0
vt 0.42130568623543 0.98918670415878 0
vt 0.35256677865982 0.99528306722641 0
vt 0.42128133773804 0.99554622173309 0
# 16 texture coordinates

o Parchemin
usemtl lpb_gradient
f 1/4/1 3/3/2 4/2/2 2/1/1
f 2/1/1 5/6/3 6/5/3 1/4/1
f 5/6/3 7/8/4 8/7/4 6/5/3
f 7/8/4 9/10/5 10/9/5 8/7/4
f 9/10/5 11/12/6 12/11/6 10/9/5
f 11/12/6 13/14/7 14/13/7 12/11/6
f 13/14/7 15/16/8 16/15/8 14/13/7
f 25/14/10 26/13/10 28/15/9 27/16/9
f 4/1/2 3/4/2 18/5/11 17/6/11
f 17/6/11 18/5/11 20/7/12 19/8/12
f 19/8/12 20/7/12 22/9/13 21/10/13
f 21/10/13 22/9/13 24/11/14 23/12/14
f 23/12/14 24/11/14 26/13/10 25/14/10

