# WaveFront *.obj file (generated by CINEMA 4D)

mtllib ./Masque2.mtl

v -13.02937126159668 62.06736755371094 13.09341621398926
v -13.02937126159668 88.19785308837891 13.09341621398926
v 13.10111141204834 62.06736755371094 13.09341621398926
v 13.10111141204834 88.19785308837891 13.09341621398926
v 13.10111141204834 62.06736755371094 -13.03706645965576
v 13.10111141204834 88.19785308837891 -13.03706645965576
v -13.02937126159668 62.06736755371094 -13.03706645965576
v -13.02937126159668 88.19785308837891 -13.03706645965576
v -13.02937126159668 75.05421447753906 22.42085266113281
v -13.02937126159668 75.05421447753906 -22.364501953125
v 13.10111141204834 75.05421447753906 -22.364501953125
v 13.10111141204834 75.05421447753906 22.42085266113281
v -13.02937126159668 71.45284271240234 8.27891445159912
v -13.02937126159668 78.8123779296875 8.24522590637207
v -13.02937126159668 71.45284271240234 -8.22256469726562
v -13.02937126159668 78.8123779296875 -8.18887615203857
v -13.02937126159668 75.08693695068359 10.88899993896484
v -13.02937126159668 75.08693695068359 -10.83265018463135
v -5.66572952270508 71.45284271240234 8.27891445159912
v -5.66572952270508 78.8123779296875 8.24522590637207
v -5.66572952270508 71.45284271240234 -8.22256469726562
v -5.66572952270508 78.8123779296875 -8.18887615203857
v -5.66572952270508 75.08693695068359 10.88899993896484
v -5.66572952270508 75.08693695068359 -10.83265018463135
v -1.87058484554291 35.75129318237305 24.19736099243164
v -1.87058484554291 162.67671203613281 24.19736099243164
v 1.94232535362244 35.75129318237305 24.19736099243164
v 1.94232535362244 162.67671203613281 24.19736099243164
v -1.87058484554291 35.75129318237305 -24.14101219177246
v -1.87058484554291 162.67671203613281 -24.14101219177246
v 1.94232535362244 35.75129318237305 -24.14101219177246
v 1.94232535362244 162.67671203613281 -24.14101219177246
v 2.3466465473175 -0.23119059205055 0.02817487344146
v 2.3466465473175 198.65919494628906 0.02817487344146
v -2.27490592002869 -0.23119059205055 0.02817487344146
v -2.27490592002869 198.65919494628906 0.02817487344146
v 2.6401150226593 97.59899139404297 -46.56842803955078
v 2.6401150226593 97.59899139404297 46.62477874755859
v -2.56837463378906 97.59899139404297 46.62477874755859
v -11.23722362518311 95.57810211181641 0.02817487344146
v -2.56837463378906 97.59899139404297 -46.56842803955078
v -2.40765595436096 121.12649536132812 -43.69276428222656
v -6.96043682098389 152.0306396484375 0.02817487344146
v -2.40765595436096 121.12649536132812 43.74911117553711
v 2.4793963432312 121.12649536132812 43.74911117553711
v 2.4793963432312 121.12649536132812 -43.69276428222656
v -2.4098207950592 76.13349914550781 -43.73149871826172
v 2.48156142234802 76.13349914550781 -43.73149871826172
v 2.48156142234802 76.13349914550781 43.78784942626953
v -2.4098207950592 76.13349914550781 43.78784942626953
v -6.96043682098389 43.81476211547852 0.02817487344146
# 51 vertices

vn 0 -0.58335316181183 0.81221866607666
vn 0 -1 0
vn 0 0.57873433828354 -0.81551617383957
vn -1 0 0
vn 0 1 0
vn 0 -0.58335310220718 -0.81221866607666
vn 0 0.57873433828354 0.81551611423492
vn 0 -0.57873427867889 -0.81551617383957
vn 0 -0.57873427867889 0.81551617383957
vn 0 0.58335310220718 0.81221866607666
vn 0 0.58335310220718 -0.81221866607666
vn 0 -0.00488910684362 0.9999880194664
vn 0 0.27704736590385 0.96085625886917
vn 0 0.27704730629921 -0.96085625886917
vn 0 -0.00488918973133 -0.9999880194664
vn 0 0.49309673905373 -0.86997449398041
vn 0 -0.28742715716362 -0.95780247449875
vn 0 -0.49824756383896 -0.86703479290009
vn -0.98849147558212 -0.00215231161565 -0.15126131474972
vn -0.98691618442535 0.06576636433601 -0.14721137285233
vn -0.99778705835342 0.06649077683687 0.00000000753387
vn -0.99999761581421 -0.0021773618646 0.00000000754675
vn -0.98849147558212 -0.00215230602771 0.15126132965088
vn -0.98691618442535 0.06576637178659 0.14721138775349
vn 0 0.55758559703827 -0.83011949062347
vn 0 0.55758553743362 0.83011949062347
vn 0 0.4930967092514 0.86997449398041
vn 0 -0.55758559703827 -0.83011949062347
vn 0 -0.49824756383896 0.86703479290009
vn 0 -0.55758553743362 0.83011949062347
vn 0 -0.28742718696594 0.95780247449875
vn -0.98552054166794 -0.07121549546719 0.1538752168417
vn -0.98385721445084 -0.0902800783515 0.1545137912035
vn -0.99581634998322 -0.09137745201588 0.00000001508229
vn -0.99739927053452 -0.07207387685776 0.00000000377088
vn -0.98552054166794 -0.07121548801661 -0.1538752168417
vn -0.98582565784454 0.08368575572968 -0.14541119337082
vn -0.99641627073288 0.0845847800374 0
vn -0.98582565784454 0.08368575572968 0.14541119337082
vn -0.98385721445084 -0.09028005599976 -0.15451376140118
# 40 normals

vt 0.88948065042496 0.7207258939743 0
vt 0.87579351663589 0.7207258939743 0
vt 0.87579351663589 0.74586516618729 0
vt 0.88948065042496 0.74586516618729 0
vt 0.9118487238884 0.7207258939743 0
vt 0.9118487238884 0.74586516618729 0
vt 0.87579351663589 0.77225589752197 0
vt 0.88476711511612 0.77225589752197 0
vt 0.88476711511612 0.74711644649506 0
vt 0.87579351663589 0.74711644649506 0
vt 0.92013150453568 0.76867175102234 0
vt 0.92267501354218 0.77225589752197 0
vt 0.93848580121994 0.77225589752197 0
vt 0.9410292506218 0.76867175102234 0
vt 0.90990662574768 0.74711644649506 0
vt 0.90990662574768 0.77225589752197 0
vt 0.93851816654205 0.76517552137375 0
vt 0.92264258861542 0.76517552137375 0
vt 0.9355143904686 0.7735071182251 0
vt 0.92013150453568 0.7735071182251 0
vt 0.92013150453568 0.79864645004272 0
vt 0.9355143904686 0.79864645004272 0
vt 0.91888028383255 0.74711644649506 0
vt 0.91888028383255 0.77225589752197 0
vt 0.91888028383255 0.78600144386292 0
vt 0.90778577327728 0.78603285551071 0
vt 0.90524226427078 0.7896169424057 0
vt 0.90990662574768 0.79864645004272 0
vt 0.88943147659302 0.7896169424057 0
vt 0.88476711511612 0.79864645004272 0
vt 0.88688796758652 0.78603285551071 0
vt 0.87579351663589 0.78600144386292 0
vt 0.88939905166626 0.78253662586212 0
vt 0.88476711511612 0.7735071182251 0
vt 0.9052746295929 0.78253662586212 0
vt 0.90990662574768 0.7735071182251 0
vt 0.92013150453568 0.7568399310112 0
vt 0.92013150453568 0.76392424106598 0
vt 0.92403626441956 0.76392424106598 0
vt 0.92403626441956 0.7568399310112 0
vt 0.93808352947235 0.76392424106598 0
vt 0.93808352947235 0.7568399310112 0
vt 0.92013150453568 0.74850434064865 0
vt 0.92013150453568 0.75558865070343 0
vt 0.92452639341354 0.75558865070343 0
vt 0.92452639341354 0.74850434064865 0
vt 0.91309994459152 0.73878085613251 0
vt 0.91309994459152 0.74586516618729 0
vt 0.91561102867126 0.74586516618729 0
vt 0.91561102867126 0.73878085613251 0
vt 0.93148666620255 0.74586516618729 0
vt 0.93148666620255 0.73878085613251 0
vt 0.93399775028229 0.74586516618729 0
vt 0.93399775028229 0.73878085613251 0
vt 0.91497611999512 0.66469591856003 0
vt 0.91477954387665 0.65567713975906 0
vt 0.91286206245422 0.65570545196533 0
vt 0.91293251514435 0.66472601890564 0
vt 0.910171687603 0.68820822238922 0
vt 0.91208916902542 0.68817991018295 0
vt 0.91201567649841 0.67895203828812 0
vt 0.90997207164764 0.67898219823837 0
vt 0.91062319278717 0.70447885990143 0
vt 0.91211920976639 0.70445668697357 0
vt 0.9118287563324 0.67052662372589 0
vt 0.91138231754303 0.65465670824051 0
vt 0.90988630056381 0.65467888116837 0
vt 0.90990960597992 0.67055493593216 0
vt 0.87227874994278 0.67947167158127 0
vt 0.87354356050491 0.68868607282639 0
vt 0.89087742567062 0.70056259632111 0
vt 0.89054971933365 0.67841774225235 0
vt 0.90884393453598 0.67893064022064 0
vt 0.90785229206085 0.6881782412529 0
vt 0.91248619556427 0.71853679418564 0
vt 0.91067290306091 0.71856361627579 0
vt 0.91755771636963 0.64040875434875 0
vt 0.91574436426163 0.64043563604355 0
vt 0.91615468263626 0.65744060277939 0
vt 0.91765069961548 0.65741842985153 0
vt 0.91133147478104 0.64050096273422 0
vt 0.90951824188232 0.64052784442902 0
vt 0.91507476568222 0.6898712515831 0
vt 0.913578748703 0.68989342451096 0
vt 0.91364479064941 0.70508217811584 0
vt 0.91545808315277 0.70505529642105 0
vt 0.91503953933716 0.67319196462631 0
vt 0.91312038898468 0.67322045564651 0
vt 0.90760624408722 0.6705247759819 0
vt 0.89968532323837 0.65479356050491 0
vt 0.88999330997467 0.64081639051437 0
vt 0.89024919271469 0.65810322761536 0
vt 0.87326717376709 0.67103278636932 0
vt 0.88145619630814 0.70487451553345 0
vt 0.89114809036255 0.71885257959366 0
vt 0.90042221546173 0.70459389686584 0
vt 0.91434359550476 0.64045631885529 0
vt 0.91284745931625 0.6404784321785 0
vt 0.88071924448013 0.65507435798645 0
# 99 texture coordinates

o Masque2
usemtl Mat.1
f 3/4/1 12/3/1 9/2/1 1/1/1
f 5/6/2 3/4/2 1/1/2 7/5/2
f 10/10/3 8/9/3 6/8/3 11/7/3
f 23/14/4 20/13/4 22/12/4 24/11/4
f 4/16/5 6/8/5 8/9/5 2/15/5
f 24/11/4 21/18/4 19/17/4 23/14/4
f 11/22/6 5/21/6 7/20/6 10/19/6
f 12/24/7 4/16/7 2/15/7 9/23/7
f 2/28/4 14/27/4 17/26/4 9/25/4
f 8/30/4 16/29/4 14/27/4 2/28/4
f 10/32/4 18/31/4 16/29/4 8/30/4
f 7/34/4 15/33/4 18/31/4 10/32/4
f 1/36/4 13/35/4 15/33/4 7/34/4
f 9/25/4 17/26/4 13/35/4 1/36/4
f 14/40/8 20/39/8 23/38/8 17/37/8
f 16/42/2 22/41/2 20/39/2 14/40/2
f 18/46/9 24/45/9 22/44/9 16/43/9
f 15/50/10 21/49/10 24/48/10 18/47/10
f 13/52/5 19/51/5 21/49/5 15/50/5
f 17/54/11 23/53/11 19/51/11 13/52/11
f 38/58/12 45/57/13 44/56/13 39/55/12
f 37/62/15 41/61/15 42/60/14 46/59/14
f 30/64/16 32/63/16 46/59/14 42/60/14
f 48/68/17 31/67/18 29/66/18 47/65/17
f 40/72/22 43/71/21 42/70/20 41/69/19
f 44/74/24 43/71/21 40/72/22 39/73/23
f 34/76/25 32/63/16 30/64/16 36/75/25
f 26/80/27 28/79/27 34/78/26 36/77/26
f 31/67/18 33/82/28 35/81/28 29/66/18
f 35/86/30 33/85/30 27/84/29 25/83/29
f 25/83/29 27/84/29 49/88/31 50/87/31
f 51/92/35 35/91/34 25/90/33 50/89/32
f 39/55/12 50/87/31 49/88/31 38/58/12
f 40/72/22 51/92/35 50/89/32 39/73/23
f 47/93/36 51/92/35 40/72/22 41/69/19
f 48/68/17 47/65/17 41/61/15 37/62/15
f 43/71/21 36/95/38 30/94/37 42/70/20
f 26/96/39 36/95/38 43/71/21 44/74/24
f 45/57/13 28/98/27 26/97/27 44/56/13
f 29/99/40 35/91/34 51/92/35 47/93/36

